<svg width="100" height="100" viewBox="0 0 100 100" fill="none" xmlns="http://www.w3.org/2000/svg">
<path d="M36.7945 68.1214V65.8444C36.7945 60.6262 37.2041 56.4674 38.0233 53.3681C38.8425 50.2688 40.0555 47.7862 41.6623 45.9203C43.2692 44.0228 45.2384 42.315 47.5699 40.797C49.5863 39.4687 51.3822 38.1879 52.9575 36.9545C54.5644 35.7211 55.8247 34.4086 56.7384 33.0171C57.6836 31.6256 58.1562 30.0443 58.1562 28.2732C58.1562 26.692 57.7781 25.3004 57.0219 24.0987C56.2658 22.8969 55.2418 21.964 53.95 21.2998C52.6582 20.6357 51.2247 20.3036 49.6493 20.3036C47.9479 20.3036 46.3726 20.6989 44.9233 21.4896C43.5055 22.2802 42.3555 23.3713 41.4733 24.7628C40.6226 26.1543 40.1973 27.7672 40.1973 29.6015H16C16.063 22.6439 17.6384 16.9987 20.726 12.666C23.8137 8.30171 27.9096 5.10753 33.0137 3.08349C38.1178 1.02783 43.726 0 49.8384 0C56.5808 0 62.5986 0.996207 67.8918 2.98862C73.1849 4.9494 77.3596 7.9222 80.4158 11.907C83.4719 15.8602 85 20.8096 85 26.7552C85 30.5819 84.3384 33.95 83.0151 36.8596C81.7233 39.7375 79.9116 42.2834 77.5801 44.4972C75.2801 46.6793 72.5863 48.6717 69.4986 50.4744C67.2301 51.8027 65.324 53.1784 63.7801 54.6015C62.2363 55.993 61.0706 57.5901 60.2829 59.3928C59.4952 61.1638 59.1014 63.3144 59.1014 65.8444V68.1214H36.7945ZM48.326 100C44.6712 100 41.5363 98.7192 38.9212 96.1575C36.3377 93.5642 35.0616 90.4175 35.0931 86.7173C35.0616 83.112 36.3377 80.0285 38.9212 77.4668C41.5363 74.9051 44.6712 73.6243 48.326 73.6243C51.7918 73.6243 54.8479 74.9051 57.4945 77.4668C60.1726 80.0285 61.5274 83.112 61.5589 86.7173C61.5274 89.1841 60.8815 91.4295 59.6212 93.4535C58.3925 95.4459 56.7856 97.043 54.8007 98.2448C52.8158 99.4149 50.6575 100 48.326 100Z" fill="black"/>
</svg>
